<?xml version="1.0" encoding="UTF-8" standalone="no"?>
<!-- Created with Inkscape (http://www.inkscape.org/) -->

<svg
   xmlns:dc="http://purl.org/dc/elements/1.1/"
   xmlns:cc="http://creativecommons.org/ns#"
   xmlns:rdf="http://www.w3.org/1999/02/22-rdf-syntax-ns#"
   xmlns:svg="http://www.w3.org/2000/svg"
   xmlns="http://www.w3.org/2000/svg"
   xmlns:sodipodi="http://sodipodi.sourceforge.net/DTD/sodipodi-0.dtd"
   xmlns:inkscape="http://www.inkscape.org/namespaces/inkscape"
   width="64"
   height="64.000046"
   id="svg2"
   version="1.1"
   inkscape:version="0.91 r13725"
   sodipodi:docname="ico_alt.svg"
   inkscape:export-filename="/home/mimooh/wargus.png"
   inkscape:export-xdpi="90"
   inkscape:export-ydpi="90">
  <defs
     id="defs4">
    <filter
       style="color-interpolation-filters:sRGB"
       height="1.3709364"
       y="-0.1854682"
       width="1.1773851"
       x="-0.088692531"
       id="filter4519"
       inkscape:collect="always">
      <feGaussianBlur
         id="feGaussianBlur4521"
         stdDeviation="0.75660286"
         inkscape:collect="always" />
    </filter>
  </defs>
  <sodipodi:namedview
     id="base"
     pagecolor="#ffffff"
     bordercolor="#666666"
     borderopacity="1.0"
     inkscape:pageopacity="0.0"
     inkscape:pageshadow="2"
     inkscape:zoom="1"
     inkscape:cx="12.468715"
     inkscape:cy="35.829993"
     inkscape:document-units="px"
     inkscape:current-layer="layer1"
     showgrid="false"
     inkscape:window-width="1680"
     inkscape:window-height="1004"
     inkscape:window-x="0"
     inkscape:window-y="0"
     inkscape:window-maximized="1"
     fit-margin-top="0"
     fit-margin-left="0"
     fit-margin-right="0"
     fit-margin-bottom="0"
     showguides="true"
     inkscape:guide-bbox="true"
     inkscape:snap-bbox="true"
     inkscape:snap-global="true">
    <inkscape:grid
       type="xygrid"
       id="grid4643"
       originx="479.00004"
       originy="-132.98437" />
  </sodipodi:namedview>
  <metadata
     id="metadata7">
    <rdf:RDF>
      <cc:Work
         rdf:about="">
        <dc:format>image/svg+xml</dc:format>
        <dc:type
           rdf:resource="http://purl.org/dc/dcmitype/StillImage" />
        <dc:title></dc:title>
      </cc:Work>
    </rdf:RDF>
  </metadata>
  <g
     inkscape:label="Layer 1"
     inkscape:groupmode="layer"
     id="layer1"
     transform="translate(2418.7336,-606.07893)">
    <g
       id="g4700"
       transform="translate(-524,13)">
      <g
         transform="translate(-0.015625,0.171875)"
         id="g4651">
        <rect
           style="opacity:1;fill:#ffffff;fill-opacity:1;stroke:none;stroke-width:0.25"
           id="rect4641"
           width="64"
           height="64"
           x="-1894.718"
           y="592.9071" />
        <rect
           style="opacity:1;fill:#e9b96e;fill-opacity:1;stroke:none;stroke-width:0.25"
           id="rect3387"
           width="56.927582"
           height="59.786057"
           x="-1891.0339"
           y="596.7677"
           rx="0"
           ry="0" />
        <path
           inkscape:connector-curvature="0"
           style="opacity:0.6;fill:#ffffff;stroke:none"
           d="m 64.3125,9.84375 c -0.50704,0.099558 -1.002163,0.219698 -1.478516,0.365234 -1.842948,0.563065 -3.52752,1.512703 -4.208984,3.238282 a 1.155114,1.155114 0 0 0 -0.02734,0.07617 l -0.0039,0.02539 c -0.242807,0.105868 -0.38209,0.0711 -0.630859,0.199219 -1.392066,0.71695 -2.850009,1.909681 -3.146485,3.708984 -0.0071,0.0154 -0.01047,0.0068 -0.01758,0.02344 -0.03624,0.08503 -0.08388,0.313608 -0.08398,0.314453 -1.7e-5,1.33e-4 0.003,0.04731 0.0039,0.06445 0.0049,0.0914 0.01743,0.343102 0.01758,0.34375 1.7e-5,7.2e-5 0.01301,0.02908 0.01563,0.03516 -0.831316,0.592759 -1.51341,1.187937 -2.017578,1.863281 -0.925409,1.239609 -1.068872,2.792722 -0.652344,4.384766 0.0093,0.13209 0.01517,0.287188 0.158203,0.513672 0.12785,0.202447 0.405366,0.317693 0.650391,0.412109 -0.09,0.594076 -0.195512,1.190296 -0.121094,1.773438 0.207678,1.627358 0.965387,3.150014 1.980469,4.53125 2.017695,2.745505 5.073846,4.985727 7.705078,6.259765 0.0867,0.05183 0.177039,0.114028 0.41211,0.16211 0.254129,0.05198 0.887713,-0.0442 1.191406,-0.433594 0.303693,-0.389392 0.259921,-0.657665 0.255859,-0.804687 -0.0041,-0.147023 -0.02199,-0.230054 -0.03711,-0.306641 -0.06048,-0.306347 -0.1343,-0.533423 -0.19336,-0.890625 -0.118119,-0.714404 -0.174269,-1.762349 0.402344,-3.179687 0.181393,-0.44598 0.06822,-0.871832 -0.04297,-1.109376 -0.111192,-0.237542 -0.233285,-0.380594 -0.349609,-0.509765 -0.232647,-0.258342 -0.471406,-0.451172 -0.703125,-0.638672 -0.08568,-0.06933 -0.13951,-0.114273 -0.21875,-0.177734 0.112899,-0.102297 0.166863,-0.132473 0.304687,-0.292969 0.309444,-0.360348 0.632375,-0.999449 0.570313,-1.699219 -0.02817,-0.317611 -0.302142,-0.616083 -0.441406,-0.917969 0.0065,-0.0035 0.01089,-0.0082 0.01758,-0.01172 0.275794,0.102394 0.542621,0.17578 0.808594,0.248046 0.433454,3.542507 0.887089,7.089644 1.33789,10.626954 -0.211913,0.04824 -0.412537,0.01657 -0.625,0.105468 -5.333767,1.791473 -8.197884,4.920218 -9.623047,7.777344 -1.176416,0.916009 -2.245363,1.877127 -3.048828,2.628906 a 1.155114,1.155114 0 0 0 0.34375,1.908204 c 0.703884,0.294668 1.171307,1.034314 2.101563,1.96875 0.744688,0.748034 1.997729,1.324041 3.589843,1.511718 0.01566,0.181787 0.02373,0.354743 0.04297,0.541016 l 0.01758,-0.0625 c -0.04494,0.491805 0.0091,0.971076 0.152344,1.363281 0.238641,1.69189 0.610267,3.556048 1.166016,5.652344 0.228157,0.860594 0.207183,1.35529 0.11914,1.697265 -0.08804,0.341977 -0.255549,0.598606 -0.564453,0.960938 -0.559829,0.656656 -1.541413,1.712143 -2.007812,3.421875 -0.01983,0.01513 -0.01589,0.01439 -0.05273,0.03906 -0.154017,0.103137 -0.430257,0.26407 -0.771484,0.439453 -0.682454,0.350766 -1.633117,0.773665 -2.601563,1.144531 -0.968446,0.370866 -1.966139,0.691526 -2.714843,0.847656 -0.374353,0.07806 -0.688555,0.111647 -0.857422,0.109375 -0.07274,-9.79e-4 -0.08794,-0.01592 -0.08398,-0.01758 a 1.155114,1.155114 0 0 0 -1.74414,0.822266 c -0.118325,0.828175 0.229261,1.76264 0.851562,2.232421 0.622302,0.469783 1.304833,0.58735 1.998047,0.648438 0.403765,0.03559 1.332066,0.04963 2.523438,0.0625 l 45.498047,0 a 1.155114,1.155114 0 0 0 0.05273,-1.921875 C 98.450175,71.164773 96.559109,69.489835 94.80471,67.724603 l 0.140624,-0.634765 a 1.155114,1.155114 0 0 0 -0.08789,-0.751953 1.155114,1.155114 0 0 0 0.25,-0.507813 l 2.58789,-12.324219 2.941406,1.029297 c 1.12884,0.414991 2.37944,-0.619793 2.18945,-1.804687 l 0.01,0.07617 -0.30469,-3.238282 a 1.155114,1.155114 0 0 0 -0.01,-0.07422 c -0.1008,-0.629935 -0.56111,-1.142532 -1.16796,-1.31836 -0.0304,-0.0099 -1.719759,-0.501497 -3.138674,-0.886719 L 98.542969,45.4375 c 0.271247,-0.159312 0.554448,-0.252045 0.800781,-0.496094 a 1.155114,1.155114 0 0 0 0.207031,-0.277344 l 0.03125,-0.06055 3.261719,-1.109375 a 1.155114,1.155114 0 0 0 0.76563,-0.896485 c 0.63608,-3.660833 -1.81836,-6.941406 -1.81836,-6.941406 a 1.155114,1.155114 0 0 0 -0.3125,-0.304688 c -1.02349,-0.672147 -2.150142,-0.638964 -3.283208,-0.597656 -1.783471,0.06504 -3.381999,0.420804 -3.576171,0.462891 l -7.386719,-0.201172 a 1.155114,1.155114 0 0 0 -1.144531,0.847656 c -0.149313,0.543904 -0.191122,1.023325 -0.263672,1.521485 -0.334975,0.04759 -0.622555,0.09808 -0.97461,0.146484 -0.01457,-0.09112 0.0187,-0.18106 -0.0098,-0.271484 0.003,0.0091 -0.10892,-0.395908 -0.244141,-0.919922 -0.136096,-0.527408 -0.31414,-1.233911 -0.515625,-2.035156 C 83.676856,32.701147 83.16904,30.659615 82.67184,28.65234 81.677527,24.63857 80.724574,20.757808 80.724574,20.757808 a 1.155114,1.155114 0 0 0 -0.06055,-0.177734 C 80.470936,20.049085 80.09157,19.64245 79.699181,19.404293 79.319598,19.173969 78.958456,19.07731 78.671837,19.007808 c -0.378698,-0.09186 -0.809913,-0.09242 -1.222656,-0.121093 0.176849,-0.458208 0.354021,-0.92142 0.375,-1.396485 0.05593,-1.266426 -0.365364,-2.497328 -1.03125,-3.601562 C 75.69028,12.060151 73.90255,10.508772 71.851524,9.843746 l -7.539062,0 z m 29.376953,34.382812 c 0.02143,0.05083 0.04375,0.09993 0.06641,0.150391 l -0.626953,1.988281 c -0.453545,-0.0707 -0.916603,-0.141068 -1.361328,-0.210937 0.139164,-0.13781 0.240134,-0.237506 0.386719,-0.382813 0.563305,-0.558394 1.004764,-1.011757 1.535156,-1.544922 z M 87.515625,47.365234 86.65625,49 c -0.05029,-0.337926 -0.127945,-0.891085 -0.169922,-1.173828 l 1.029297,-0.460938 z m -0.470703,4.333985 c 0.215672,0.133757 0.347697,0.384835 0.61914,0.398437 l 2.914063,0.158203 -1.519531,6.189453 C 88.501651,56.876458 87.992772,55.285009 87.34375,53.759766 87.230895,52.933068 87.153961,52.456207 87.044922,51.699219 Z"
           transform="translate(-1939.7336,583.06335)"
           id="path4635" />
        <path
           inkscape:connector-curvature="0"
           style="opacity:0.3;fill:#ffffff;stroke:none"
           d="m 59.298828,9.84375 c -0.768418,0.552086 -1.456023,1.245192 -1.970703,2.140625 -0.08138,0.04045 -0.143541,0.05099 -0.226563,0.09375 -1.545161,0.795799 -3.428602,2.262736 -4.011718,4.640625 -0.0078,0.01783 -0.01167,0.007 -0.01953,0.02539 -0.07119,0.167032 -0.126199,0.440439 -0.166015,0.61914 -0.598645,0.495127 -1.198385,0.976414 -1.673828,1.613281 -1.196459,1.602686 -1.397992,3.860346 -0.96875,5.765626 0.02525,0.324905 0.03369,0.696522 0.390625,1.261718 0.07348,0.11636 0.230825,0.202077 0.333984,0.3125 -0.0042,0.368909 -0.125616,0.750584 -0.08008,1.107422 0.263117,2.06178 1.185668,3.847083 2.330078,5.404297 1.837324,2.500071 4.284224,4.346773 6.69336,5.769531 -2.805653,1.781832 -4.68854,3.95693 -5.837891,6.082032 -1.11421,0.890967 -2.15959,1.806979 -2.902344,2.501953 a 3.0341314,3.0341314 0 0 0 0.900391,5.013671 c 0.06558,0.02745 0.362708,0.420109 1.498047,1.560547 0.66078,0.663749 1.784965,1.271784 3.09375,1.712891 0.03945,0.224314 0.123997,0.386683 0.1875,0.587891 0.250133,1.772085 0.630703,3.700185 1.203125,5.859375 0.172373,0.65018 0.105841,0.786482 0.115234,0.75 0.0094,-0.03648 0.05914,-0.06656 -0.175781,0.208984 -0.360967,0.423399 -1.319679,1.662438 -2.009766,3.306641 -0.09528,0.05376 -0.122655,0.07417 -0.251953,0.140625 -0.601862,0.309343 -1.507499,0.715332 -2.414062,1.0625 -0.906563,0.347168 -1.84242,0.640068 -2.425782,0.761718 -0.147078,0.03067 -0.14412,0.02539 -0.226562,0.03516 a 3.0341314,3.0341314 0 0 0 -3.9375,2.453125 c -0.139882,0.979054 0.197298,2.271767 0.84375,3.208984 l 54.144536,0 a 3.0341314,3.0341314 0 0 0 -1.125,-3.460938 c -0.770941,-0.539889 -2.332267,-1.982767 -3.767583,-3.353515 a 3.0341314,3.0341314 0 0 0 0,-0.445313 3.0341314,3.0341314 0 0 0 0.103515,-0.36914 l 2.148438,-10.228516 0.894531,0.3125 c 2.394309,0.88021 5.096099,-1.35347 4.693359,-3.865234 l 0.0234,0.195312 -0.30469,-3.238281 a 3.0341314,3.0341314 0 0 0 -0.0234,-0.193359 c -0.21636,-1.352116 -1.20343,-2.450903 -2.5039,-2.826172 -0.0217,-0.0072 -0.70655,-0.190612 -0.9043,-0.253906 l 2.48047,-0.845704 a 3.0341314,3.0341314 0 0 0 2.00976,-2.351562 c 0.82214,-4.731674 -2.12695,-8.337891 -2.12695,-8.337891 a 3.0341314,3.0341314 0 0 0 -0.82226,-0.800781 c -1.78917,-1.17499 -3.106167,-0.950839 -4.382817,-0.904297 -1.836913,0.06699 -3.113983,0.364932 -3.554687,0.458985 l -7.289063,-0.199219 a 3.0341314,3.0341314 0 0 0 -1.474609,0.339843 c -0.388059,-1.546423 -0.847967,-3.399998 -1.3125,-5.27539 a 3.0341314,3.0341314 0 0 0 0,-0.002 c -0.993685,-4.011232 -1.945313,-7.888672 -1.945313,-7.888672 a 3.0341314,3.0341314 0 0 0 -0.121093,-0.371094 c -0.352704,-0.969949 -1.065463,-1.721595 -1.75586,-2.140625 -0.415807,-0.252304 -0.685018,-0.299378 -0.99414,-0.394531 0.03261,-1.680449 -0.49765,-3.190129 -1.279297,-4.486328 -0.700583,-1.161771 -1.599517,-2.210672 -2.65625,-3.074219 l -16.445313,0 z m 22.970703,9.740234 c 0.235842,0.433949 0.129516,0.248988 0.09961,0.207032 a 3.0341314,3.0341314 0 0 0 -0.09961,-0.207032 z M 61.474609,39.585938 c 0.01509,0.0088 0.07019,0.02361 0.08594,0.0332 0.04304,0.02103 0.08795,0.06141 0.130859,0.08203 l -0.216797,-0.115234 z m 39.714841,5.998046 -0.27539,0.517578 c -0.0161,-0.0051 -0.0534,-0.01414 -0.0703,-0.01953 a 3.0341314,3.0341314 0 0 0 0.3457,-0.498047 z M 55.939453,66.332031 c -0.179953,0.45478 -0.446016,0.769893 -0.542969,1.310547 0.151905,-0.846219 0.359661,-1.141909 0.542969,-1.310547 z"
           transform="translate(-1939.7336,583.06335)"
           id="path4637" />
        <g
           transform="matrix(0.43364794,0,0,0.43364794,-1046.1471,340.22246)"
           id="layer1-5"
           inkscape:label="Layer 1">
          <g
             transform="matrix(0.90626031,0,0,0.90626031,-746.48892,91.512928)"
             id="g3668">
            <g
               id="g4829"
               transform="matrix(1.6281124,0,0,1.6281124,-1471.902,663.02363)">
              <path
                 style="fill:#cc0000;stroke:none"
                 d="m -1218.7578,674.12695 -27.3008,0.60157 c -4.8012,6.61837 -34.1946,2.38157 -20.5156,53.97851 2.6044,9.82391 -4.9572,8.86237 -6.5,17.46485 -0.2665,1.48573 -18.8023,9.62366 -21.4181,7.16165 -0.3801,2.66197 1.5592,3.62567 4.4856,3.88358 5.1491,0.4538 117.3746,0.58758 117.3746,0.58758 -6.6457,-4.65415 -21.9356,-18.90631 -24.3389,-27.4655 -5.3087,-18.90583 -15.8319,-35.7576 -21.7868,-56.21224 z"
                 transform="matrix(0.62995741,0,0,0.62995741,906.64029,-453.22758)"
                 id="path4831"
                 inkscape:connector-curvature="0"
                 sodipodi:nodetypes="ccsccscsc" />
              <path
                 sodipodi:nodetypes="ccccccccccccc"
                 inkscape:connector-curvature="0"
                 id="path4833"
                 d="m 118.28865,-18.87524 c -2.20946,0.743914 -7.77056,2.964058 -8.93475,4.840399 -1.63393,7.5450694 2.53176,15.5893537 1.88081,23.615974 -0.26759,1.905482 -1.61202,3.350276 -2.81159,4.74805 1.08405,-0.54479 2.35003,-1.727154 3.46673,-2.566061 1.43742,-1.096346 2.0703,-3.04556 1.47017,-4.766121 -0.27725,-1.824253 1.32125,-3.208746 2.42597,-4.434667 2.74122,-2.61081102 5.85022,-4.872099 9.24712,-6.553 -2.32398,-4.400019 -3.24906,-9.414142 -5.68823,-13.763595 -0.28049,-0.424888 -0.55739,-0.925888 -1.05623,-1.120979 z m -11.12566,32.35913 c -0.14698,3.894709 -3.51537,7.251224 -12.947735,9.394345 10.531345,-1.786363 12.214135,-2.487137 12.947735,-9.394345 z"
                 style="opacity:0.2;fill:#000000;stroke:none" />
              <path
                 sodipodi:nodetypes="ccsscscccc"
                 inkscape:connector-curvature="0"
                 id="path4835"
                 d="m 139.06169,-28.556182 -17.19727,0.3789 c -3.02453,4.16929 -20.79099,1.18754 -12.17383,33.691409 1.64067,6.188643 -3.78002,6.457757 -4.75195,11.001953 -0.10094,0.471958 1.28752,-1.715902 1.39453,-2.3125 1.65943,-3.387946 5.84438,-1.90706 4.20371,-8.095703 -8.61716,-32.503869 9.01004,-30.115869 12.03457,-34.285159 l 16.49414,-0.36328 c -0.002,-0.0052 -0.002,-0.01043 -0.004,-0.01562 z"
                 style="opacity:0.4;fill:#ffffff;stroke:none" />
            </g>
            <g
               id="g4837"
               transform="matrix(1.578365,0,0,1.578365,-1363.9614,185.14911)">
              <path
                 sodipodi:nodetypes="cccccccccccccc"
                 inkscape:connector-curvature="0"
                 id="path4839"
                 transform="matrix(1.0315183,0,0,1.0315183,78.965533,389.26043)"
                 d="m 16.09375,-96.929688 c -0.370027,-0.0126 -0.911539,0.110254 -0.996094,0.470704 l -8.2089841,33.445312 c -0.054192,0.230253 2.0984294,2.404619 3.0097656,3.31836 l 5.2128905,0 0.748808,-3.153352 -0.417033,-1.757069 0.956759,-0.9315 0.788403,-3.574439 -1.256207,-1.300017 1.501268,-0.654872 5.189721,-24.706877 c 0.112872,-0.476928 -0.238694,-0.936595 -0.728516,-0.953124 z"
                 style="color:#000000;display:inline;overflow:visible;visibility:visible;fill:#2d3c50;fill-opacity:1;fill-rule:nonzero;stroke:none;enable-background:accumulate" />
              <path
                 sodipodi:nodetypes="cccccccccccc"
                 inkscape:connector-curvature="0"
                 id="path4841"
                 transform="matrix(1.0315183,0,0,1.0315183,78.965533,389.26043)"
                 d="m 16.880859,-96.154297 -8.3144528,35.091797 1.3339844,1.367188 3.5937504,0 0.907722,-3.801304 -0.459219,-1.41809 0.972473,-1.114723 0.659561,-2.94005 -1.321728,-1.840723 1.886105,-1.011564 L 21.4375,-95.0625 Z"
                 style="color:#000000;display:inline;overflow:visible;visibility:visible;fill:#618599;fill-opacity:1;fill-rule:nonzero;stroke:none;enable-background:accumulate" />
              <path
                 style="color:#000000;display:inline;overflow:visible;visibility:visible;fill:#2d3c50;fill-opacity:1;fill-rule:nonzero;stroke:none;enable-background:accumulate"
                 d="m 101.74023,272.35547 c -2.086545,-4.5e-4 -3.795372,1.70837 -3.794918,3.79492 5.09e-4,1.14321 0.603854,2.13296 1.46875,2.8457 l -2.535307,8.04875 c -2.550347,-0.38628 -4.791544,-0.75846 -7.30462,-1.12697 -0.324591,-0.0481 -0.645056,0.10979 -0.804687,0.39648 l -2.552836,4.85572 c -0.282865,0.5105 0.06749,1.14073 0.650391,1.16993 l 8.009833,0.42967 c -0.399954,2.06177 -1.978379,15.12516 -0.953261,17.11022 1.883076,-0.80574 6.057863,-14.85717 6.698935,-16.24265 l 1.05668,0.40784 0.23686,0.0914 6.41217,2.24642 c 0.56583,0.20796 1.14631,-0.27002 1.05078,-0.86524 l -0.49212,-5.22085 c -0.0488,-0.30223 -0.26807,-0.54893 -0.5625,-0.63281 0,0 -4.04252,-1.31194 -6.66797,-1.88287 l 1.44518,-8.15227 c 1.42908,-0.56221 2.43089,-1.90587 2.4336,-3.47657 l 0,-0.002 c 4.5e-4,-2.08655 -1.70838,-3.79537 -3.79493,-3.79492 z"
                 id="path4843"
                 inkscape:connector-curvature="0"
                 sodipodi:nodetypes="ccccccccccccccccccccccc" />
              <path
                 sodipodi:nodetypes="ccccccccccccccc"
                 inkscape:connector-curvature="0"
                 id="path4845"
                 d="m 101.73962,273.14499 c -1.66024,-3.6e-4 -3.006226,1.34562 -3.005864,3.00586 4.84e-4,1.08897 0.590036,2.09248 1.541014,2.62305 l -2.212889,9.4746 c -2.788413,-0.44065 -5.511674,-0.75794 -8.28125,-1.16406 l -2.164481,3.88871 8.512138,0.72262 c -1.04795,4.89757 -2.341591,18.35266 -2.10253,17.69923 0.0636,0.67326 5.687192,-15.47845 6.077832,-17.17947 l 8.23916,2.91054 -0.75084,-4.64002 c 0,0 -5.00948,-1.52774 -7.39526,-1.96543 l 2.954,-9.94936 c 1.35915,-0.31621 1.59243,-1.02496 1.59483,-2.42041 3.6e-4,-1.66024 -1.34562,-3.00622 -3.00586,-3.00586 z"
                 style="color:#000000;display:inline;overflow:visible;visibility:visible;fill:#425b68;fill-opacity:1;fill-rule:nonzero;stroke:none;enable-background:accumulate" />
            </g>
            <path
               style="fill:#ffffff;fill-rule:evenodd;stroke:none"
               d="m -1213.8431,646.35689 -12.7127,52.56004 1.8484,1.97058 c 1.5955,-7.05274 8.3439,-29.04859 8.3439,-29.04859 1.1234,-17.10407 2.5204,-25.48203 2.5204,-25.48203 z"
               id="path4847"
               inkscape:connector-curvature="0"
               sodipodi:nodetypes="ccccc" />
            <path
               sodipodi:nodetypes="ccccccccccccccccccccccccc"
               style="color:#000000;display:inline;overflow:visible;visibility:visible;opacity:0.4;fill:#ffffff;fill-opacity:1;fill-rule:nonzero;stroke:none;enable-background:accumulate"
               d="m -1207.0398,632.98315 c -0.6838,0.0116 -1.1242,0.16734 -1.1684,0.41309 -0.075,0.3981 0.8957,0.91058 2.1672,1.1437 1.2708,0.23349 2.3604,0.0995 2.4323,-0.29904 0.075,-0.39809 -0.8957,-0.91058 -2.1672,-1.14369 -0.4406,-0.081 -0.8794,-0.12061 -1.2639,-0.11412 z m -0.8355,3.07041 c -0.6837,0.0116 -1.1241,0.16734 -1.1683,0.41309 -0.07,0.39783 0.8996,0.90813 2.1672,1.14062 1.269,0.23263 2.3564,0.0988 2.4291,-0.29903 0.07,-0.39783 -0.8996,-0.90812 -2.1671,-1.14061 -0.4394,-0.0808 -0.877,-0.12037 -1.2609,-0.11411 z m -13.934,1.84966 -0.3946,1.18377 28.312,4.7351 c -3.8705,-1.568 -7.8405,-2.57462 -11.8501,-3.35403 0.3934,-0.0627 0.63,-0.19308 0.6659,-0.36686 0.076,-0.39776 -0.8932,-0.91014 -2.1641,-1.14368 -0.4406,-0.081 -0.8794,-0.12061 -1.264,-0.11412 -0.6837,0.0116 -1.1241,0.16734 -1.1683,0.41309 -0.031,0.18456 0.1646,0.40295 0.5456,0.61039 -4.2196,-0.70018 -8.4653,-1.24929 -12.6824,-1.96371 z"
               id="path4849"
               inkscape:connector-curvature="0" />
            <path
               sodipodi:nodetypes="scccccccccs"
               inkscape:connector-curvature="0"
               id="path4851"
               d="m -1200.0965,608.30946 c -4.4305,0.1616 -9.1185,1.18158 -9.1185,1.18158 l -18.9639,-0.51345 c -3.2262,11.75137 1.6794,17.57612 5.453,27.40692 0.3613,-0.43507 9.1322,-8.99916 12.1589,-12.18433 0,0 1.7444,5.36896 2.5193,5.95019 1.2593,0.64578 5.3334,2.3911 8.6966,-0.94082 l 0.628,-1.17877 9.3993,-3.19937 c 1.3274,-7.64011 -4.1426,-15.48307 -4.1426,-15.48307 -1.4065,-0.92375 -3.9716,-1.13582 -6.6301,-1.03888 z"
               style="color:#000000;display:inline;overflow:visible;visibility:visible;fill:#2d3c50;fill-opacity:1;fill-rule:nonzero;stroke:none;enable-background:accumulate" />
            <path
               sodipodi:nodetypes="csccccccccccccccscccccccccccccccc"
               id="path4853"
               d="m -1251.7965,610.53683 c -1.8522,0.0329 -3.843,0.59781 -6.1118,0.59781 -4.3658,0 -8.4199,2.32428 -11.772,6.28033 -5.1767,-0.4115 -9.8283,-2.28324 -13.5366,-0.69624 -19.1988,6.37751 -24.6261,19.43457 -25.8084,26.99816 7.0287,-0.47912 10.6287,-1.2785 19.341,-2.53711 l 10.7606,-5.75043 c 2.8297,13.01773 -1.5245,33.55747 -3.5589,42.77272 -1.2016,2.6346 -2.2153,4.24682 -1.7267,5.2691 1.8528,2.15674 4.5397,1.25842 8.1279,1.32602 -0.8368,2.84999 -1.4023,6.18084 -1.0558,8.87512 -4.9278,1.32215 -9.4518,4.89877 -10.3983,9.30615 l 63.0544,0 c -5.4264,-5.27603 -13.6634,-9.19543 -20.4118,-9.92623 2.3535,-3.06141 3.449,-6.05938 4.1688,-9.48566 5.3211,-0.76188 11.5089,-1.56269 12.5486,-3.36741 -0.3793,-13.30434 -3.5757,-33.34036 -4.8446,-41.91497 -0.078,-0.52889 -0.739,-5.22055 -0.819,-5.66089 l 1.2163,3.97653 10.1766,-4.57484 c 1.9381,1.00524 -1.356,-17.96713 -3.8969,-17.89733 -2.7175,0.75323 -12.3187,1.66148 -14.9152,2.37788 -1.4888,0.41076 -3.8681,-3.77857 -5.2595,-3.38024 -1.7131,-2.1224 -3.4265,-2.62139 -5.2787,-2.58844 z m -1.8157,74.10455 0,0.003 c -0.6474,2.81802 -0.6703,5.54122 -0.067,7.62859 -4.455,-0.29154 -8.6541,0.54035 -12.7769,0.35933 -0.095,-0.003 -0.1853,-0.006 -0.2798,-0.01 1.1588,-2.47759 1.8902,-5.18562 2.1051,-7.73672 3.5647,-0.0169 7.3166,-0.0901 11.0184,-0.24486 z"
               style="fill:#000000;fill-opacity:1;stroke:none"
               inkscape:connector-curvature="0" />
            <path
               sodipodi:nodetypes="cssccccsccccccccsscccccccccccccccccscc"
               style="color:#000000;display:inline;overflow:visible;visibility:visible;fill:#2c3e46;fill-opacity:1;fill-rule:nonzero;stroke:none;enable-background:accumulate"
               d="m -1255.106,567.7338 c -5.242,-0.0211 -12.4828,1.03073 -18.4286,2.73747 -2.9723,0.8532 -5.6107,1.85669 -7.5682,3.0735 -0.9766,0.60713 -1.8088,1.26971 -2.4045,2.09933 -0.5374,0.7485 -0.7922,1.70112 -0.6844,2.66659 1.489,12.71598 3.181,25.51195 4.7988,38.2476 0.067,0.52283 0.403,0.976 0.8847,1.18994 6.1343,2.71882 12.0668,4.15371 17.1401,4.58403 5.0707,0.43011 9.2743,-0.0857 12.1213,-1.58144 0.6073,-0.31827 0.9264,-1.01236 0.7707,-1.68009 l -0.01,-0.0462 2.7005,0.74294 c 0.1153,0.0315 0.2386,0.0124 0.3391,-0.0524 l 7.8518,-5.07729 c 0.3694,-0.21001 0.548,-0.58374 0.6288,-0.94331 0.081,-0.35958 0.071,-0.72907 -0.032,-1.06047 -0.1488,-0.48522 -0.9576,-3.60134 -1.9853,-7.68835 -1.0278,-4.08748 -2.3197,-9.28472 -3.5852,-14.39334 -2.5311,-10.21718 -4.954,-20.09025 -4.954,-20.09025 l 0,0 c -0.013,-0.0467 -0.026,-0.0949 -0.043,-0.14174 -0.2388,-0.67751 -0.6971,-1.16494 -1.2361,-1.49204 -0.5402,-0.3278 -1.159,-0.51557 -1.7788,-0.66588 -1.2567,-0.3048 -2.779,-0.42146 -4.5254,-0.4285 z m 4.917,21.6501 0.5117,2.51244 -2.5093,1.49822 c -0.5565,0.33202 -0.8387,0.98548 -0.6998,1.61844 l -0.01,-0.0246 2.5679,16.11042 -3.6191,-15.58943 c -0.1683,-0.72288 -0.8445,-1.219 -1.5846,-1.1622 l -6.819,0.52099 -0.7152,-3.03651 c 3.4243,0.16602 6.5134,-0.18457 8.9338,-0.87549 1.6932,-0.48334 2.9132,-1.03285 3.9397,-1.57221 z"
               id="path4857"
               inkscape:connector-curvature="0" />
            <path
               style="fill:#000000;fill-rule:evenodd;stroke:none"
               d="m -1271.8237,586.4085 5.7674,33.49649 8.5591,0.50005 c 3.0089,-1.82431 6.1541,-2.33736 9.5447,-2.9244 l 2.5355,-1.06423 -1.8872,-35.32087 z"
               id="path4859"
               inkscape:connector-curvature="0"
               sodipodi:nodetypes="ccccccc" />
            <path
               style="fill:#425b68;fill-opacity:1;stroke:none"
               d="m -1255.1122,569.24124 c -10.0592,-0.0405 -28.7524,4.15497 -27.6152,9.0972 l 4.8313,38.02944 c 11.9683,5.30457 23.133,5.57601 27.9506,3.04503 l -5.1537,-23.17873 -8.4187,0.23847 -3.4279,-6.18205 c 8.233,1.00568 18.3288,-3.32705 19.8799,-4.54335 l -0.1117,0.71059 0.1932,5.98477 -4.4301,2.24689 5.4361,23.31105 c 1.2765,-1.05332 7.5407,-4.92267 7.5407,-4.92267 -0.8462,-2.75835 -10.5492,-42.25516 -10.5492,-42.25516 -0.3804,-1.08361 -2.7723,-1.56792 -6.1254,-1.58146 z"
               id="path4861"
               inkscape:connector-curvature="0"
               sodipodi:nodetypes="scccccccccccccs" />
            <path
               style="fill:#70979f;fill-opacity:1;stroke:none"
               d="m -1247.1435,586.42629 -1.131,0.7055 -0.113,4.65408 -4.3204,2.04116 4.577,23.65631 2.2251,0.49324 -4.4963,-23.16259 3.5916,-2.24388 z m -9.0053,8.17811 -7.5678,1.01751 0.3407,1.53842 8.243,-0.87531 z"
               id="path4863"
               inkscape:connector-curvature="0"
               sodipodi:nodetypes="cccccccccccccc" />
            <path
               sodipodi:nodetypes="cssssc"
               inkscape:connector-curvature="0"
               id="path4865"
               d="m -1248.598,569.95067 c 0.3426,1.69254 -6.8757,5.59842 -15.7526,7.23113 -8.8768,1.63272 -18.2507,1.39076 -18.5932,-0.30169 -0.3426,-1.69252 7.6845,-5.05812 16.5613,-6.69082 8.8769,-1.63275 17.442,-1.93107 17.7845,-0.23854 z"
               style="color:#000000;display:inline;overflow:visible;visibility:visible;fill:#2c3e46;fill-opacity:1;fill-rule:nonzero;stroke:none;enable-background:accumulate" />
            <path
               style="opacity:0.3;fill:#000000;fill-opacity:1;stroke:none"
               d="m -1275.4168,617.01213 c -3.7636,-36.59569 4.9008,-44.6579 10.6576,-47.16691 -6.0237,0.39336 -14.7785,2.58401 -18.3667,7.41172 0.3624,1.63086 5.6453,38.50245 5.6453,38.50245 z"
               id="path4869"
               inkscape:connector-curvature="0"
               sodipodi:nodetypes="ccccc" />
            <path
               sodipodi:nodetypes="ccccccssssscccc"
               inkscape:connector-curvature="0"
               id="path4873"
               d="m -1225.6383,611.33611 c 2.3317,2.92658 5.7525,12.64552 4.9994,20.63342 3.2654,-4.30965 5.4327,-6.20643 9.8372,-10.35337 2.3126,0.69447 4.07,6.28709 4.07,6.28709 1.9272,1.08581 4.946,1.74434 6.5337,-1.58459 0,0 -2.8452,-5.03568 -3.4702,-7.28944 2.1875,1.40574 8.1533,-1.50328 8.1533,-1.50328 0.1926,0.18283 -3.5231,2.29691 -3.7908,2.86416 -0.051,0.10573 2.9025,-0.11817 2.8712,0.0393 -0.038,0.19088 -2.7783,1.0061 -2.8018,1.23142 -0.1538,1.47526 1.1629,2.95755 1.4851,2.82859 l 6.2643,-2.5075 c 1.04,-1.3307 -2.9972,-11.23376 -2.9972,-11.23376 -0.1652,-0.82599 -8.3021,-0.95249 -14.1888,0.9577 -4.6287,0.0941 -16.4621,-0.97367 -16.9654,-0.36971 z"
               style="color:#000000;display:inline;overflow:visible;visibility:visible;fill:#618599;fill-opacity:1;fill-rule:nonzero;stroke:none;enable-background:accumulate" />
            <path
               sodipodi:nodetypes="cccccc"
               inkscape:connector-curvature="0"
               id="path4875"
               d="m -1225.7261,611.13563 2.5053,4.0338 15.1004,-1.47889 c 0,0 2.3507,-1.60315 13.1367,-2.97564 l -13.9111,1.05907 z"
               style="color:#000000;display:inline;overflow:visible;visibility:visible;opacity:0.6;fill:#ffffff;fill-opacity:1;fill-rule:evenodd;stroke:none;enable-background:accumulate" />
            <g
               transform="matrix(1.6281124,0,0,1.6281124,-1465.5701,670.50675)"
               id="g4877">
              <g
                 id="g4879"
                 transform="translate(23.422913,-3.9774757)">
                <path
                   transform="matrix(1.9613291,0,0,1.9613291,-274.66355,-10.474304)"
                   sodipodi:nodetypes="ccccccccscccccccccc"
                   inkscape:connector-curvature="0"
                   id="path4881"
                   d="m 189.05487,-32.209897 c -3.30908,-0.242547 -7.65142,0.310977 -8.53219,2.541188 -0.006,0.02516 1.01349,-0.108714 1.72377,-0.137918 -0.91854,0.07454 -4.65166,1.091771 -4.77189,3.363622 -0.16274,0.126338 1.69776,-0.279874 1.69776,-0.279874 -3.45957,1.972878 -4.4954,3.076655 -3.82032,5.401649 0.008,0.198658 0.47749,-0.37786 1.46582,-1.042124 -3.17815,4.076443 2.40874,9.208374 6.33987,11.097596 0.49486,0.289501 -0.73314,-1.28009 0.32786,-3.888071 0.13853,-0.340501 -1.28459,-1.140324 -1.36456,-1.453366 -0.14661,-0.789726 1.92089,-0.88538 0.37999,-2.752487 0.83206,-1.102756 2.55456,-0.83331 3.7568,-1.612963 0.63792,-0.424084 0.97114,-0.95032 1.19531,-1.34375 0.22418,-0.393431 0.34334,-0.623754 0.625,-0.826172 0.28167,-0.202418 0.7962,-0.41411 1.85352,-0.517578 0.50828,-0.04974 0.77946,-0.278695 1.00977,-0.386719 0.2303,-0.108024 0.25394,-0.0822 0.21875,-0.101563 0.20861,0.11433 0.46227,0.109124 0.66601,-0.01367 4.77143,-1.825536 0.92405,-7.594497 -2.77127,-8.0478 z"
                   style="fill:#800000;fill-opacity:1;fill-rule:evenodd;stroke:none" />
                <path
                   style="fill:#cc0000;fill-rule:evenodd;stroke:none"
                   d="m 100.89573,-58.985211 c 4.90496,-0.02871 4.8311,-8.073467 -0.83677,-11.899948 -3.441356,-2.32332 -11.154676,-1.986701 -18.858245,1.538622 -0.202616,0.09272 6.930619,-1.390988 10.14569,0.582854 -4.955082,-1.423768 -14.319439,1.804032 -16.434052,5.316954 3.46241,-0.962805 8.955276,-2.54653 9.83339,-2.805617 -6.567902,2.981363 -13.039829,6.913769 -13.999034,11.123487 -0.254609,0.483309 5.412369,-2.581718 9.99646,-4.666873 -5.522079,4.021782 -9.032981,3.514446 -8.954019,10.55258 0.18727,8.371327 12.343552,15.906965 12.343552,15.906965 0,0 -2.054396,-4.149309 -0.965956,-6.241437 0.892325,-1.715169 -1.779586,-1.984993 -2.079628,-3.460066 -0.119189,-1.049727 0.835791,-1.917744 0.835791,-1.917744 -0.639474,0.569106 -3.657129,0.404513 -3.558697,0.147451 0.109662,-0.235658 1.897524,-0.504443 2.827186,-3.707751 -0.787467,1.127869 -2.269962,0.80777 -2.269962,0.80777 -0.119944,-1.78067 1.65677,-1.853619 4.069336,-3.330234 11.523039,7.000072 14.69401,-3.90439 15.134826,-7.231672 0.904224,-0.148935 1.764832,-1.268254 2.770132,-0.715341 z"
                   id="path4883"
                   inkscape:connector-curvature="0"
                   sodipodi:nodetypes="csscccccccscccccccc" />
                <path
                   transform="translate(142.85075,83.852018)"
                   id="path4885"
                   d="m -47.8125,-154.35742 c 0.63234,1.00622 1.951339,1.83729 3.193359,2.90039 -1.88021,-1.13881 -11.391958,0.41009 -13.173828,-0.19922 2.30272,2.09603 15.781173,0.27028 15.132813,8.41602 l 0.251953,-0.0899 c 0.42939,-3.2166 0.126041,-5.10355 -0.605469,-6.44922 1.14862,1.58705 1.949821,3.0077 0.712891,6.38868 l 0.253906,-0.13868 c 5.98498,-10.38661 -2.201675,-8.98103 -5.765625,-10.82812 z m -2.898438,6.08594 c -4.353479,-0.14824 -9.819522,1.15027 -14.707031,3.63671 3.02148,0.75262 19.254928,-6.03874 22.548828,1.43946 l 0.189453,-0.0332 c -0.436944,-3.30057 -3.67777,-4.89473 -8.03125,-5.04296 z"
                   style="color:#000000;display:inline;overflow:visible;visibility:visible;opacity:0.2;fill:#000000;fill-opacity:1;fill-rule:evenodd;stroke:none;enable-background:accumulate"
                   inkscape:connector-curvature="0" />
                <path
                   transform="translate(142.85075,83.852018)"
                   sodipodi:nodetypes="scccscccccccccccc"
                   inkscape:connector-curvature="0"
                   id="path4887"
                   d="m -49.402344,-156.21484 c -3.577375,0.0593 -7.914789,1.03263 -12.248047,3.01562 -0.131097,0.06 2.806856,-0.52746 5.769532,-0.42383 2.792383,-0.80617 5.425966,-1.62086 9.800781,-2.34375 -1.002877,-0.18365 -2.11847,-0.26798 -3.322266,-0.24804 z m -9.548828,3.88476 c -3.923956,0.97148 -7.731611,2.94684 -8.986328,5.03125 0.796418,-0.22146 1.773258,-0.42523 2.703661,-0.68872 z m -5.544315,5.64967 c -4.626441,2.21767 -7.173224,5.79169 -7.608029,7.69994 -0.118247,0.22446 1.111123,-0.35635 2.845704,-1.20898 0.123016,-2.11709 3.868496,-4.98668 4.762325,-6.49096 z m -4.738888,7.66674 c -1.208738,1.20199 -1.862689,2.83714 -1.828125,5.91797 0.06887,3.07852 1.76083,6.04126 3.867188,8.56054 -2.573338,-4.51576 -2.821286,-9.61727 -2.039063,-14.47851 z"
                   style="opacity:0.3;fill:#ffffff;fill-rule:evenodd;stroke:none" />
                <path
                   sodipodi:nodetypes="ccc"
                   inkscape:connector-curvature="0"
                   id="path4889"
                   d="m 83.39678,-51.61118 c 0.0818,-0.106293 8.48039,3.856742 13.93881,-4.56185 -0.32871,1.139581 -4.40216,11.281243 -13.93881,4.56185 z"
                   style="color:#000000;display:inline;overflow:visible;visibility:visible;opacity:0.3;fill:#000000;fill-opacity:1;fill-rule:evenodd;stroke:none;enable-background:accumulate" />
                <path
                   inkscape:connector-curvature="0"
                   id="path4891"
                   d="m 94.975754,-55.900288 c -1.972225,4.567875 -7.631748,3.321188 -11.41504,2.630879 -2.410376,1.602043 -6.966195,5.301753 -8.210724,0.365881 -0.4091,-3.980511 4.754933,-3.586565 6.227265,-6.69233 3.180684,-2.189681 6.434611,2.212684 10.039408,0.808537 1.957392,-0.51581 5.893647,0.231756 3.359091,2.887033 z"
                   style="color:#000000;display:inline;overflow:visible;visibility:visible;opacity:0.3;fill:#ffffff;fill-opacity:1;fill-rule:evenodd;stroke:none;filter:url(#filter4519);enable-background:accumulate" />
              </g>
              <g
                 id="g4893"
                 transform="translate(-3.2703689,-4.7729708)">
                <path
                   sodipodi:nodetypes="ccccc"
                   inkscape:connector-curvature="0"
                   id="path4895"
                   d="m 124.82774,-55.639338 0.0459,-3.115323 2.66074,-0.553212 1.63416,2.907099 c -1.24721,0.913486 -2.82311,1.337031 -4.34078,0.761436 z"
                   style="color:#000000;display:inline;overflow:visible;visibility:visible;fill:#888a85;fill-opacity:1;fill-rule:nonzero;stroke:none;enable-background:accumulate" />
                <path
                   sodipodi:nodetypes="ccccc"
                   inkscape:connector-curvature="0"
                   id="path4897"
                   d="m 127.78304,-60.10279 c 1.00017,0.421313 0.6989,1.423368 0.4011,1.712729 -1.27771,1.068332 -2.90082,0.869151 -3.66007,0.468359 l -0.20697,-1.100396 c 0.46218,-0.570182 2.34976,0.30469 3.46594,-1.080692 z"
                   style="color:#000000;display:inline;overflow:visible;visibility:visible;fill:#d3d7cf;fill-opacity:1;fill-rule:nonzero;stroke:none;enable-background:accumulate" />
              </g>
            </g>
            <path
               style="color:#000000;display:inline;overflow:visible;visibility:visible;fill:#f57900;fill-opacity:1;fill-rule:nonzero;stroke:none;enable-background:accumulate"
               d="m -1253.9816,656.80474 c -0.522,-0.35582 -1.3494,-0.91821 -1.8386,-1.24983 -1.544,-1.04655 -2.7505,-1.94036 -3.4847,-2.58172 -0.666,-0.58163 -0.7174,-0.69136 -0.817,-1.74276 -0.056,-0.61743 -0.2532,-1.87201 -0.433,-2.78867 -0.4534,-2.31198 -0.7251,-5.11674 -0.7846,-8.10167 -0.048,-2.41793 -0.071,-2.5702 -0.4935,-3.33911 -0.3379,-0.61436 -0.429,-0.9755 -0.3836,-1.52112 0.2026,-2.43714 3.1695,-8.09154 4.7438,-9.04089 1.0715,-0.64619 1.1885,0.0148 0.2685,1.51464 -1.4438,2.35288 -2.0545,3.70245 -2.0665,4.56666 -0.011,0.76706 0.033,0.85478 0.5891,1.20384 0.3303,0.20705 0.8669,0.56911 1.1923,0.80467 l 0.5917,0.42816 0.3851,4.74567 c 0.5281,6.48093 1.0841,10.64735 1.4856,11.13026 0.3307,0.39764 1.8007,1.09167 2.1612,1.02029 0.1766,-0.0349 0.1015,-1.49884 -0.3879,-7.58934 -0.6767,-8.41615 -0.5876,-8.01785 -1.8809,-8.41536 -0.378,-0.11628 -0.6942,-0.30576 -0.7026,-0.4212 -0.031,-0.42763 0.9003,-2.29016 1.6228,-3.24543 0.9356,-1.23682 1.4989,-1.41602 2.1985,-0.6995 0.5212,0.53389 1.5847,1.36536 3.004,2.34859 0.5151,0.35681 0.9414,0.70986 0.9474,0.78452 0.01,0.0748 -0.1366,0.38092 -0.3168,0.68049 -0.3241,0.53886 -0.3218,0.61967 0.2223,7.5345 l 0.5496,6.98986 0.4604,0.24418 c 0.5373,0.2849 1.6812,0.24113 2.0241,-0.0773 0.2055,-0.19078 0.1555,-1.24683 -0.3671,-7.74639 l -0.605,-7.52539 -0.9442,-0.61464 c -0.5193,-0.33807 -0.948,-0.69181 -0.9526,-0.78612 -0.01,-0.0941 0.3056,-0.49394 0.6896,-0.88803 0.3839,-0.39413 0.8811,-1.0963 1.1048,-1.56039 0.2618,-0.54292 0.5277,-0.86786 0.7459,-0.91128 0.2972,-0.0593 2.538,1.26252 4.8645,2.86899 0.8008,0.55298 0.8326,0.70248 0.3486,1.63853 -0.1891,0.36572 -0.2405,1.21258 -0.2129,3.50497 0.02,1.66249 0.016,3.61118 -0.01,4.33041 -0.026,0.71923 0.04,2.33803 0.1461,3.59739 0.2169,2.61037 0.2509,2.52567 -1.2604,3.32976 -0.958,0.50964 -1.4975,1.22838 -2.2544,3.00314 -0.9722,2.27972 -1.7003,3.53991 -2.0899,3.61707 -0.2107,0.0417 -0.9709,-0.18637 -1.6893,-0.50692 -0.7183,-0.32054 -1.7521,-0.74211 -2.2973,-0.93676 l -0.9912,-0.35392 -0.3999,0.47546 c -0.2199,0.26152 -0.611,0.97839 -0.869,1.59309 -0.2581,0.61465 -0.5585,1.16672 -0.6676,1.22679 -0.1091,0.06 -0.6256,-0.18178 -1.1475,-0.53766 z"
               id="path3276-2"
               inkscape:connector-curvature="0" />
            <g
               id="g3489"
               transform="matrix(0.99677612,0.08023333,-0.08023333,0.99677612,49.620678,99.72388)">
              <g
                 transform="matrix(0.85612445,-0.16382124,0.16382124,0.85612445,-301.28846,-120.17596)"
                 id="g3416">
                <path
                   style="color:#000000;display:inline;overflow:visible;visibility:visible;fill:#2d3c50;fill-opacity:1;fill-rule:nonzero;stroke:none;enable-background:accumulate"
                   d="m -1279.5156,637.10332 c -10.0834,-2.21012 -22.9776,7.10793 -30.2761,12.58097 6.7242,3.71907 5.2015,13.6918 21.423,12.29426 0,0 0.2641,0.40834 0.6156,1.12312 -1.3454,-0.80858 -5.0581,3.15545 -5.0581,3.15545 -1.3301,4.13254 4.2638,8.16364 4.2638,8.16364 1.2494,3.49229 5.3965,4.77157 6.1999,4.73241 2.5164,-0.12265 6.2159,-0.67289 9.2466,-1.68208 0.3167,-0.10547 0.377,-1.21705 0.6935,-1.31356 1.6302,-0.49705 3.4899,-0.38133 4.932,-1.02789 0.3616,-0.16212 0.1722,-1.12862 0.5186,-1.29707 2.0331,-0.98877 3.7044,-1.27961 5.052,-2.34017 l 1.2376,-10.79455 c -3.5159,-4.28628 -13.2555,-8.87095 -13.2555,-8.87095 z"
                   id="path4855"
                   inkscape:connector-curvature="0"
                   sodipodi:nodetypes="ccccscssssscccc" />
                <path
                   sodipodi:nodetypes="ccccscccccccsccccc"
                   inkscape:connector-curvature="0"
                   id="path4871"
                   d="m -1305.9207,649.85402 c 2.413,-2.10868 8.4629,-10.07068 25.4497,-10.74822 0,0 3.0045,11.45692 5.9583,14.04574 7.3207,4.76706 10.742,7.11333 12.0433,8.04899 l -1.158,8.84694 c -0.1597,1.22012 -1.598,1.7706 -3.3196,2.17802 l 0.4956,-5.09932 c -0.5757,1.83039 -1.9145,4.48709 -2.4026,6.12173 -1.2867,1.1746 -3.2165,1.3099 -4.1313,1.31674 -0.2864,0.11131 1.7253,-3.58376 0.3676,-5.45835 -0.4115,0.91244 -1.9952,5.79507 -2.4589,6.02645 -4.7565,2.23371 -11.1398,1.34721 -11.7019,-2.5294 -2.1928,-1.40419 -3.9182,-3.76349 -3.5207,-5.17381 0,0 2.0508,-2.05907 4.0732,-1.73197 0.327,-0.17328 0.4405,3.46796 2.427,5.05866 1.9916,-6.92583 -3.7291,-5.74355 -3.8646,-14.22125 l -0.609,3.55917 c -15.1996,-1.44647 -12.4965,-7.29962 -17.6481,-10.24012 z"
                   style="color:#000000;display:inline;overflow:visible;visibility:visible;fill:#618599;fill-opacity:1;fill-rule:nonzero;stroke:none;enable-background:accumulate" />
                <path
                   sodipodi:nodetypes="ccccc"
                   inkscape:connector-curvature="0"
                   id="path4905"
                   d="m -1281.0255,639.30805 c -8.0581,-0.91114 -18.4552,5.43495 -23.858,10.16604 2.5834,2.94284 2.3624,6.15653 8.0403,8.42742 4.6362,-6.02228 -4.1352,-14.06255 15.9856,-17.12734 0.5942,-0.76857 0.1931,-0.65092 -0.1679,-1.46612 z"
                   style="color:#000000;display:inline;overflow:visible;visibility:visible;opacity:0.4;fill:#ffffff;fill-opacity:1;fill-rule:evenodd;stroke:none;enable-background:accumulate" />
              </g>
              <path
                 style="color:#000000;display:inline;overflow:visible;visibility:visible;opacity:0.3;fill:#ffffff;fill-opacity:1;fill-rule:evenodd;stroke:none;enable-background:accumulate"
                 d="m -1302.5767,640.31887 c 0.1802,0.33467 -7.9387,5.43324 -9.671,9.2564 5.1691,6.12814 9.1852,6.45461 16.0404,6.40554 0.1951,-10e-4 -0.1381,-3.47178 0.063,-3.4735 0,0 0.8303,3.3997 1.2142,3.3967 l 2.0322,2.58293 c 2.3269,2.27223 2.7546,3.29643 2.4349,6.30593 l -3.1037,-4.26026 c -1.7568,0.48671 -2.0065,1.22461 -2.8708,1.86007 0.3995,1.12559 -0.3513,2.14058 3.891,4.14097 1.5624,2.21904 3.2738,2.34544 4.2813,2.25002 1.4837,-0.14051 1.1414,-1.33084 2.2111,-2.4914 l 0.8964,-8.29264 c -5.4311,-2.99592 -3.4349,-3.91219 -6.7331,-6.19639 -0.2911,-0.2016 5.9911,-3.70224 5.9911,-3.70224 0,0 -8.9205,2.64776 -9.1552,2.60024 -9.6426,0.4826 -17.1928,-1.12597 -7.5218,-10.38237 z"
                 id="path4427-3"
                 inkscape:connector-curvature="0"
                 sodipodi:nodetypes="ccssccccccsccsccc" />
              <path
                 style="color:#000000;display:inline;overflow:visible;visibility:visible;opacity:0.7;fill:#2d3c50;fill-opacity:1;fill-rule:nonzero;stroke:none;enable-background:accumulate"
                 d="m -1284.4965,657.91094 c 3.1322,0.57279 9.4548,-1.80428 10.6265,-5.51038 l 1.2313,9.52552 c -4.4282,3.5461 -10.6152,5.52241 -15.0434,7.45727 0.3863,-0.45531 1.7594,-1.43156 2.0324,-2.424 0.7907,-2.87388 1.1532,-9.04841 1.1532,-9.04841 z"
                 id="path4431-5"
                 inkscape:connector-curvature="0"
                 sodipodi:nodetypes="ccccsc" />
            </g>
          </g>
          <g
             id="text3537-59"
             style="color:#000000;font-style:normal;font-weight:normal;font-size:56.95957184px;line-height:125%;font-family:Sans;letter-spacing:0px;word-spacing:0px;clip-rule:nonzero;display:inline;overflow:visible;visibility:visible;opacity:1;isolation:auto;mix-blend-mode:normal;color-interpolation:sRGB;color-interpolation-filters:linearRGB;solid-color:#000000;solid-opacity:1;fill:#5c3566;fill-opacity:1;fill-rule:nonzero;stroke:none;stroke-width:1.24492085;stroke-linecap:butt;stroke-linejoin:miter;stroke-miterlimit:4;stroke-dasharray:none;stroke-dashoffset:0;stroke-opacity:1;color-rendering:auto;image-rendering:auto;shape-rendering:auto;text-rendering:auto;enable-background:accumulate"
             transform="matrix(0.8710547,-0.00256253,0.00194429,1.1480278,0,0)" />
        </g>
      </g>
    </g>
    <g
       transform="matrix(0.8710547,-0.00256253,0.00194429,1.1480278,0,0)"
       style="color:#000000;font-style:normal;font-weight:normal;font-size:56.95957184px;line-height:125%;font-family:Sans;letter-spacing:0px;word-spacing:0px;clip-rule:nonzero;display:inline;overflow:visible;visibility:visible;opacity:1;isolation:auto;mix-blend-mode:normal;color-interpolation:sRGB;color-interpolation-filters:linearRGB;solid-color:#000000;solid-opacity:1;fill:#5c3566;fill-opacity:1;fill-rule:nonzero;stroke:none;stroke-width:1.24492085;stroke-linecap:butt;stroke-linejoin:miter;stroke-miterlimit:4;stroke-dasharray:none;stroke-dashoffset:0;stroke-opacity:1;color-rendering:auto;image-rendering:auto;shape-rendering:auto;text-rendering:auto;enable-background:accumulate"
       id="text3537" />
  </g>
</svg>
